<?xml version="1.0" standalone="no"?>
<!DOCTYPE svg PUBLIC "-//W3C//DTD SVG 1.1//EN" "http://www.w3.org/Graphics/SVG/1.1/DTD/svg11.dtd" >
<svg xmlns="http://www.w3.org/2000/svg" xmlns:xlink="http://www.w3.org/1999/xlink" version="1.1">
<metadata></metadata>
<defs>
<font id="studiodayv2medium" horiz-adv-x="1196" >
<font-face units-per-em="2048" ascent="1638" descent="-410" />
<missing-glyph horiz-adv-x="614" />
<glyph horiz-adv-x="0" />
<glyph unicode="&#xd;" horiz-adv-x="681" />
<glyph unicode=" "  horiz-adv-x="614" />
<glyph unicode="&#x09;" horiz-adv-x="614" />
<glyph unicode="&#xa0;" horiz-adv-x="614" />
<glyph unicode="'" horiz-adv-x="595" d="M156 870l2 603l297 4z" />
<glyph unicode="0" d="M61 672q0 72 3.5 125t13.5 138t29.5 147.5t55.5 133t86 114.5t127 73t173 26.5t174 -28t130 -66.5t91 -100t59.5 -119.5t33 -137.5t15.5 -140.5t1 -139.5q-12 -715 -553 -725q-98 -2 -184.5 69t-140.5 178.5t-85 228t-29 223.5z" />
<glyph unicode="1" horiz-adv-x="868" d="M217 1034l510 406l-6 -1440l-275 4v1030h-229z" />
<glyph unicode="2" horiz-adv-x="1282" d="M23 14l346 881l-318 377q10 8 29.5 20.5t81 44t123 54t145.5 41t159 15.5t155 -35.5t141 -98.5q63 -70 92 -152t28 -156.5t-25 -155.5t-54.5 -141.5t-70.5 -121t-61.5 -87t-39.5 -46.5l385 -443z" />
<glyph unicode="3" horiz-adv-x="1251" d="M-25 1477l1119 -7q6 8 12 19v-19h4q-4 -250 -8 -499q-2 -490 -4 -979l-1090 10l367 496l-314 219l318 223z" />
<glyph unicode="4" horiz-adv-x="1009" d="M-2 350l866 1086q0 -313 -2 -629l4 -803l-397 -12l-8 358h-463z" />
<glyph unicode="5" horiz-adv-x="1214" d="M76 135l303 406l-291 856h924l-291 -400l22 29q12 -12 32 -32.5t73 -84t95 -127t80 -153.5t47 -172t-21.5 -173t-108.5 -165q-72 -66 -158 -100.5t-166.5 -38t-161.5 9t-148.5 37t-120 49t-81.5 43.5z" />
<glyph unicode="6" horiz-adv-x="1167" d="M147 494q3 13 7 36q4 61 18 111q20 106 49 207.5t86.5 230.5t127 216t178 133.5t235.5 13.5l-234 -549q201 -8 306.5 -111.5t103.5 -347.5q0 -131 -30.5 -219t-92 -137t-142.5 -68.5t-198 -19.5q-215 2 -318.5 137t-90.5 369q-2 0 -5 -2z" />
<glyph unicode="7" horiz-adv-x="1206" d="M63 -2l492 1221l-459 6l-8 170h975l-594 -1397h-406z" />
<glyph unicode="8" d="M76 483q12 217 137 308q-59 115 -51 290q10 199 107.5 282t287.5 81q201 0 304.5 -93.5t103.5 -326.5q-2 -154 -47 -244q137 -106 135 -356q0 -129 -34 -216t-102.5 -135t-159.5 -67.5t-222 -17.5q-242 0 -358 133t-101 362z" />
<glyph unicode="9" horiz-adv-x="1167" d="M147 983q-4 133 24 222t88 139.5t140 73t197 24.5q215 6 322.5 -126t103.5 -368q0 2 2 2q-2 -12 -4 -37q-4 -59 -16 -110q-16 -106 -42 -208.5t-79.5 -234t-121 -219.5t-174 -137t-233.5 -20l215 555q-201 2 -309 102t-113 342z" />
<glyph unicode="A" horiz-adv-x="1470" d="M35 12l633 1448l661 -1444z" />
<glyph unicode="B" horiz-adv-x="1431" d="M137 12l17 1450l655 6q8 2 23.5 4.5t57.5 3.5h13q35 0 67 -4q38 -6 85 -25.5t79 -52.5q32 -32 54 -90q20 -54 20 -124v-13q-2 -98 -20.5 -172.5t-42 -112.5t-54 -62.5t-48 -31t-31.5 -8.5q20 2 46.5 0t74 -18.5t81.5 -47.5q32 -30 56 -98q19 -55 19 -126q0 -18 -1 -37 q-6 -102 -49 -184.5t-98.5 -127.5t-109.5 -75.5t-93 -40.5l-37 -9z" />
<glyph unicode="C" horiz-adv-x="1540" d="M95 790q3 70 7 143t22.5 144.5t45.5 136t77 118.5t114.5 93t160.5 61q88 20 195 19h20q133 -2 241.5 -29.5t174.5 -69.5t115 -93t70.5 -102.5t33.5 -93.5t14 -66v-27q-6 2 -17 3t-43 1t-61.5 -5t-65.5 -20.5t-61.5 -41t-43 -71t-17.5 -104.5v-9q0 -72 32 -122 q34 -53 81 -74.5t94 -30.5t80 -9l33 2q0 -12 -2 -33t-17.5 -81t-40 -114.5t-77 -121t-119 -114.5t-175 -80t-239.5 -32q-139 2 -247.5 41t-179.5 103.5t-117 154.5t-66.5 185.5t-20.5 201.5q-2 38 -2 77q0 30 1 60z" />
<glyph unicode="D" horiz-adv-x="1527" d="M170 1452l664 21q12 0 33.5 -1.5t83 -14.5t115.5 -36.5t119.5 -76t110.5 -122.5t71 -186q19 -82 19 -179q0 -39 -4 -79q-10 -142 -43.5 -261.5t-77.5 -194t-100.5 -134t-102.5 -88t-95.5 -48t-66.5 -23.5t-26 -4l-692 -11z" />
<glyph unicode="E" horiz-adv-x="1413" d="M166 23l10 485l8 954l1059 -14l-358 -481l305 -215l-309 -217l389 -521l-1088 9q-6 -8 -12 -17v17h-4z" />
<glyph unicode="F" horiz-adv-x="1337" d="M186 1462l1008 -12l-635 -598l496 -6l-854 -803q-2 233 -4 467q-2 0 -2 -2z" />
<glyph unicode="G" horiz-adv-x="1566" d="M95 790q3 70 7 143t22.5 144.5t45.5 136t77 118.5t114.5 93t160.5 61q88 19 195 19h20q133 -2 244 -29.5t179.5 -68.5t120.5 -94t77.5 -100.5t41 -93.5t18.5 -66.5t3 -26.5q-6 2 -19 3t-51 -1t-72 -7t-76 -23.5t-71.5 -45t-49 -74t-19.5 -108.5l358 -4q4 -203 4 -346 q0 -307 -20 -340q-25 -41 -84 -65.5t-160.5 -35t-191.5 -13.5q-54 -2 -128 -2q-50 0 -108 1q-139 2 -248.5 41t-180.5 103.5t-119 154.5t-68.5 186.5t-20.5 202.5q-2 38 -2 77q0 29 1 60z" />
<glyph unicode="H" horiz-adv-x="1472" d="M158 14l6 1454l584 -718zM754 750l571 718l4 -1454z" />
<glyph unicode="I" horiz-adv-x="753" d="M-4 2v1473l614 -7v-1478z" />
<glyph unicode="J" horiz-adv-x="1019" d="M34 381v31q0 28 1 40q2 19 4 31l838 981l2 -1102v-22t-8.5 -56t-22.5 -80t-48 -85t-80 -80t-122 -55q-70 -21 -156 -21h-15q-95 2 -168 32t-114 73t-66.5 103t-34.5 108.5t-10 101.5z" />
<glyph unicode="K" horiz-adv-x="1497" d="M156 6v395l8 203q-2 435 -4 869l1183 -9l-598 -590l611 -872z" />
<glyph unicode="L" horiz-adv-x="1249" d="M154 1470l952 -1468l-948 -6z" />
<glyph unicode="M" horiz-adv-x="1705" d="M160 8l2 1465l686 -689l704 682l11 -1452z" />
<glyph unicode="N" horiz-adv-x="1460" d="M152 10v1469l741 -486zM598 428l719 1022l2 -1470z" />
<glyph unicode="O" horiz-adv-x="1658" d="M82 823q10 184 59 311.5t141.5 202t215.5 106.5t293 32q172 0 300 -36t227 -119t149.5 -232.5t50.5 -364.5q-2 -217 -51.5 -361.5t-151 -225.5t-234.5 -112.5t-323 -31.5q-354 2 -524 224q-153 200 -154 531q0 37 2 76z" />
<glyph unicode="P" horiz-adv-x="1421" d="M168 1462l725 11q8 0 22.5 -2.5t55.5 -12.5t77.5 -26.5t82 -49t77.5 -76.5t52 -113q19 -63 18 -137v-15q-2 -83 -24.5 -149.5t-55.5 -106.5t-73 -69.5t-78.5 -41.5t-70.5 -18.5t-52 -6.5h-21l-307 2v-647l-420 2z" />
<glyph unicode="Q" horiz-adv-x="1671" d="M82 823q10 184 59 311.5t141.5 202t215.5 106.5t293 32q172 0 300 -36t227 -119t149.5 -232.5t50.5 -364.5q-1 -34 -1 -69q0 -53 2 -110q3 -95 7 -153.5t4 -124t-5 -102.5t-19.5 -76t-40 -58.5t-67.5 -37t-100.5 -22.5t-140.5 -5q-145 0 -300 42t-296 120t-250.5 180.5 t-172.5 237.5q-57 123 -57 253q0 12 1 25z" />
<glyph unicode="R" horiz-adv-x="1470" d="M168 1462l725 11q8 0 22.5 -2.5t55.5 -12.5t77.5 -26.5t82 -49t77.5 -76.5t52 -113q19 -63 18 -137v-15q-2 -83 -28.5 -150.5t-66.5 -108.5t-88 -71.5t-95.5 -44t-87.5 -20.5t-64 -9h-23l-2 -2l504 -633l-1151 4v7v7q-2 -2 -4 -2z" />
<glyph unicode="S" horiz-adv-x="1390" d="M108 1011q10 81 59.5 175t145 178t195.5 123t181 39t164 -26.5t137 -60.5t106.5 -77t68 -60.5t25.5 -27.5l-883 -795q-10 10 -25.5 27.5t-54.5 76t-67 117.5q-26 58 -44 144q-11 56 -12 109q1 30 4 58zM158 238l899 774q10 -10 25.5 -28.5t52 -77t62.5 -118t42 -145.5 q9 -51 9 -100q0 -34 -4 -67q-11 -81 -63.5 -174t-149.5 -174t-197 -119q-90 -34 -166 -34q-9 1 -18 1q-83 4 -161.5 29.5t-137 64.5t-103.5 76.5t-67.5 63.5t-22.5 28z" />
<glyph unicode="T" horiz-adv-x="1370" d="M2 1024l2 446l1221 3l2 -449l-410 -4l-2 -1028l-405 8l-2 1026z" />
<glyph unicode="U" horiz-adv-x="1474" d="M170 512l4 958h1159l-14 -999q-2 -10 -4 -28.5t-16.5 -71t-36 -100.5t-64.5 -107.5t-98.5 -101.5t-141.5 -70.5t-188 -28.5q-98 0 -181 19.5t-141.5 51.5t-104.5 72.5t-74.5 87t-49 91.5t-30 86t-13.5 71.5t-4 49.5z" />
<glyph unicode="V" horiz-adv-x="1454" d="M82 1454l1229 -4l-619 -1446z" />
<glyph unicode="W" horiz-adv-x="2041" d="M27 1470l1228 -4q-2 -2 -2 -4l648 -2l-621 -1446l-319 762l-326 -756z" />
<glyph unicode="X" horiz-adv-x="1589" d="M-23 1493l1448 -2l-467 -750l488 -749l-1436 2l451 754z" />
<glyph unicode="Y" horiz-adv-x="1499" d="M37 1475l1321 -13l-674 -973z" />
<glyph unicode="Z" horiz-adv-x="1462" d="M0 2l401 1026l-399 442l1221 7l-410 -899l508 -582z" />
<glyph unicode="a" horiz-adv-x="993" d="M35 12l399 914l418 -912z" />
<glyph unicode="b" horiz-adv-x="993" d="M137 12l10 897l406 4q6 0 15.5 2.5t35 2.5t49 -3.5t52 -15.5t49 -31.5t34 -56.5t13.5 -84q-2 -61 -13.5 -107.5t-25.5 -70t-33.5 -38.5t-30 -18.5t-20.5 -5.5h29.5t45 -10t51.5 -29q22 -20 36 -62q11 -33 11 -76q0 -12 -1 -25q-4 -63 -30.5 -114.5t-60.5 -79.5t-68 -46 t-58 -25l-23 -6z" />
<glyph unicode="c" horiz-adv-x="1083" d="M94 414q-1 16 -1 34q0 26 2 53q3 46 5 93t14.5 94t30 88t49 77t73.5 61q43 26 105 40q55 13 121 13h19q313 -6 399 -215q23 -53 23 -99q-8 2 -21.5 3t-48.5 -3t-61.5 -17t-48 -48t-23.5 -88q0 -51 22.5 -86t50 -48.5t63.5 -19.5t50.5 -6t22.5 2q0 -8 -2 -21.5t-11 -53.5 t-25.5 -74.5t-49.5 -77.5t-77 -75t-114.5 -52.5t-154.5 -20.5q-113 2 -195 39t-127 102.5t-66.5 141.5t-23.5 164z" />
<glyph unicode="d" horiz-adv-x="1120" d="M170 969l442 14q8 0 21.5 -1t54.5 -10t77 -24.5t80 -50.5t73.5 -82t47.5 -123q12 -54 12 -118q0 -26 -2 -53q-7 -95 -29.5 -174t-52.5 -129t-65.5 -89t-69.5 -58.5t-61.5 -31.5t-46.5 -14l-16 -5l-459 -6z" />
<glyph unicode="e" horiz-adv-x="1120" d="M266 41q2 158 4 313q4 308 6 615l685 -8l-232 -310l197 -139l-201 -139l252 -338l-701 6q-4 -6 -8 -10v10h-2z" />
<glyph unicode="f" horiz-adv-x="970" d="M178 924l651 -9l-409 -385q160 -2 319 -4l-551 -516q-2 150 -2 301l-2 -2z" />
<glyph unicode="g" horiz-adv-x="1114" d="M94 420q-1 17 -1 35q0 26 2 54q3 46 5 94t14.5 95t30 89t50 78t75.5 62.5t106 40.5q56 13 123 13h19q88 -2 161 -20.5t118 -45t79.5 -62.5t51 -65.5t28 -61.5t12.5 -43t3 -17q-6 0 -14.5 1t-33 0t-47 -5.5t-50 -15.5t-47 -29.5t-33 -49t-13.5 -71.5l236 -2q3 -135 3 -231 q0 -200 -14 -222q-29 -51 -137 -65q-94 -11 -256 -11h-49q-115 0 -197.5 39t-130 105.5t-70 143.5t-24.5 167z" />
<glyph unicode="h" horiz-adv-x="987" d="M137 -2l2 879l355 -435zM496 442l346 435l2 -879z" />
<glyph unicode="i" horiz-adv-x="526" d="M-4 -2v930l387 -4v-934z" />
<glyph unicode="j" horiz-adv-x="776" d="M37 332l596 698v-782v-16.5t-5 -40t-15.5 -57.5t-34 -60.5t-56.5 -56t-87 -39t-122 -15.5q-233 4 -272 230q-8 43 -8 83q0 28 4 56z" />
<glyph unicode="k" horiz-adv-x="1017" d="M127 0v246l4 129q0 270 -2 540l737 -6l-370 -366l378 -545z" />
<glyph unicode="l" horiz-adv-x="884" d="M145 928l598 -922l-596 -4z" />
<glyph unicode="m" horiz-adv-x="1177" d="M160 8l2 914l426 -430l440 426l6 -908z" />
<glyph unicode="n" horiz-adv-x="995" d="M135 14v904l457 -300zM410 272l442 627v-903z" />
<glyph unicode="o" horiz-adv-x="1138" d="M82 522q12 228 122 322q108 92 319 92h9q111 0 192 -22.5t144.5 -76t95.5 -147.5q31 -89 31 -215v-16q0 -139 -31.5 -231.5t-96 -143.5t-148.5 -71.5t-207 -20.5q-226 2 -334 143q-98 127 -97 339q0 24 1 48z" />
<glyph unicode="p" horiz-adv-x="968" d="M168 868l430 6q10 0 25.5 -2t55.5 -18t70.5 -41t54.5 -76q22 -45 22 -104v-15q-3 -67 -26.5 -115t-55 -70.5t-63.5 -33t-54.5 -12.5t-22.5 0h-182v-383h-248z" />
<glyph unicode="q" horiz-adv-x="1130" d="M82 502q12 225 120 317q107 90 315 90h9q106 0 186.5 -22.5t143 -73.5t94.5 -145q29 -89 29 -212v-16q0 -59 3 -125.5t4 -104.5t1 -81t-7 -65.5t-21.5 -45t-41 -32t-65.5 -15.5t-98 -6q-113 0 -235 42t-221 110.5t-160 170.5q-56 97 -56 200v14z" />
<glyph unicode="r" horiz-adv-x="1005" d="M147 901l449 8q10 -2 26.5 -4t58.5 -18.5t73.5 -42t56.5 -78.5q23 -48 23 -111v-13q-2 -71 -32 -123t-71 -75.5t-81 -36t-68.5 -15.5t-28.5 -1h-2l313 -391l-712 2v2v6q0 -2 -2 -2z" />
<glyph unicode="s" horiz-adv-x="933" d="M106 616q6 48 36 105t87 106q78 67 162 87q42 10 78.5 10t66.5 -10q62 -20 114 -52.5t79 -59t27 -30.5l-531 -477q-4 6 -14 17.5t-32.5 46t-38.5 69.5t-28 87q-7 33 -8 65q0 18 2 36zM137 152l541 464q4 -6 13 -17t31.5 -46t38 -71t25.5 -88q6 -30 7 -59q1 -21 -3 -41 q-8 -48 -39.5 -104.5t-88.5 -105.5q-80 -66 -163 -83q-37 -8 -69 -8q-40 1 -76 13q-62 22 -114 53t-76 62z" />
<glyph unicode="t" horiz-adv-x="997" d="M-2 301l2 305h303l-2 305h301l2 -307l250 6l-2 -307h-246v-305l-305 2l-2 299z" />
<glyph unicode="u" horiz-adv-x="1064" d="M170 317l4 621h750l-11 -645q0 -6 -2 -18.5t-11 -47t-23.5 -65.5t-42 -69t-62.5 -65.5t-91 -46t-122 -18.5q-285 2 -366 230q-23 68 -23 124z" />
<glyph unicode="v" horiz-adv-x="999" d="M82 918l776 -3l-391 -911z" />
<glyph unicode="w" horiz-adv-x="1394" d="M119 901l743 -2l-2 -2l391 -2l-374 -872l-193 460l-197 -458z" />
<glyph unicode="x" horiz-adv-x="1046" d="M43 897l848 -2l-273 -440l285 -441l-842 2l265 443z" />
<glyph unicode="y" horiz-adv-x="1095" d="M70 866l884 -8l-450 -651z" />
<glyph unicode="z" horiz-adv-x="1050" d="M98 -6l246 629l-244 270l748 4l-250 -549l309 -356z" />
<glyph unicode="&#x2000;" horiz-adv-x="763" />
<glyph unicode="&#x2001;" horiz-adv-x="1526" />
<glyph unicode="&#x2002;" horiz-adv-x="763" />
<glyph unicode="&#x2003;" horiz-adv-x="1526" />
<glyph unicode="&#x2004;" horiz-adv-x="508" />
<glyph unicode="&#x2005;" horiz-adv-x="381" />
<glyph unicode="&#x2006;" horiz-adv-x="254" />
<glyph unicode="&#x2007;" horiz-adv-x="254" />
<glyph unicode="&#x2008;" horiz-adv-x="190" />
<glyph unicode="&#x2009;" horiz-adv-x="305" />
<glyph unicode="&#x200a;" horiz-adv-x="84" />
<glyph unicode="&#x2019;" horiz-adv-x="659" d="M158 954l10 521l348 -2z" />
<glyph unicode="&#x202f;" horiz-adv-x="305" />
<glyph unicode="&#x205f;" horiz-adv-x="381" />
<glyph unicode="&#x25fc;" horiz-adv-x="901" d="M0 0v901h901v-901h-901z" />
</font>
</defs>
</svg>
